<?xml version="1.0" encoding="utf-8"?>
<!DOCTYPE svg PUBLIC "-//W3C//DTD SVG 1.0//EN" "http://www.w3.org/TR/2001/REC-SVG-20010904/DTD/svg10.dtd">
<svg version="1.0" xmlns="http://www.w3.org/2000/svg" width="563px" height="563px" viewBox="0 0 563 563" preserveAspectRatio="xMidYMid meet">
 <g fill="#ffffff">
  <path d="M562.1 281.5 C 562.1 436.5 436.5 562.1 281.5 562.1 126.5 562.1 0.9 436.5 0.9 281.5 0.9 126.5 126.5 0.9 281.5 0.9 436.5 0.9 562.1 126.5 562.1 281.5 Z M253.5 561  m 71.5 -30.9 c 13.7 -2.4 25 -5.2 25 -6.2 0 -0.3 -2.8 -2.6 -6.2 -5 -8 -5.5 -20.7 -17.7 -26.5 -25.1 -5 -6.6 -14.4 -25.6 -19.8 -40.2 -4.7 -12.9 -10.9 -37.1 -12.9 -51 -4.6 -30.8 -4.1 -59.5 1.4 -92.1 1 -6 2.1 -15.5 2.5 -21 1.2 -18.3 -2.8 -46 -7.6 -51.8 -1.8 -2.2 -1.8 -2.2 -3.3 -0.2 -1.9 2.6 -18.7 30.7 -21.4 36 -1.5 2.8 -8.2 35.2 -22.2 107.8 -11.1 57.2 -20.5 107.3 -21 111.4 -1.6 14.7 2.4 27.9 10.1 33 3.6 2.4 13.5 4.5 28.8 6.3 4.2 0.5 19.5 0.7 34.1 0.5 21.4 -0.2 28.9 -0.7 39 -2.4 z  m 64.3 -20.9 c 45.4 -21.6 82.5 -55.2 108.2 -98 14.8 -24.7 27.5 -57.8 32.2 -84 2.5 -13.9 2.7 -16.5 2.7 -45.7 0 -29.2 -0.2 -31.8 -2.7 -45.7 -6.2 -34.4 -24.1 -75.3 -45.7 -104.3 -9.5 -12.8 -22.5 -27 -33.8 -37.1 -11 -9.9 -27.3 -22.4 -29.1 -22.4 -0.6 0 -12.7 11.6 -26.9 25.7 -36.6 36.6 -66.3 70.4 -92.2 104.8 -7 9.4 -13.6 18.3 -14.6 19.9 l -1.8 2.9 4.9 4.4 c 23.5 20.8 52.4 33 86 36.3 5.5 0.5 10.5 1 11.2 1 0.7 0 -1.4 3.6 -4.5 8 -18.7 26.1 -30.7 54.8 -36.3 86.7 -3 17.1 -3.3 50.5 -0.5 68.8 2.1 14.3 8.2 38.6 12.5 50.5 4.5 12.2 15.2 34 16.8 34 0.7 0 6.8 -2.6 13.6 -5.8 z  m -258.3 -34.8 c 2.3 -2.5 5.3 -7 6.6 -9.9 1.9 -4.1 12.1 -54.8 41.5 -206.1 45.6 -235.1 43.9 -222.9 31.2 -219 -61.7 19.2 -112.6 58.7 -144.8 112.4 -14.8 24.7 -27.5 57.8 -32.2 84 -2.5 13.9 -2.7 16.5 -2.7 45.7 0 29.2 0.2 31.8 2.7 45.7 7.8 43.2 30.4 88.7 61.1 123.1 9.1 10.1 29.3 28.7 31.2 28.7 0.6 0 3 -2.1 5.4 -4.6 z  m 146.5 -270.4 c 23.4 -38.9 65 -102.4 90 -137.5 5.9 -8.2 11 -15.5 11.2 -16.2 1.1 -2.8 -32.1 -13.6 -52.6 -17 l -15.4 -2.6 -2.4 2.9 c -3.1 3.8 -7.1 11.5 -9.5 18.4 -1.6 4.8 -33.8 167.5 -33.8 171 0 1.9 -0.2 2.3 12.5 -19 z "/>
 </g>
</svg>