<?xml version="1.0" encoding="utf-8"?>
<!DOCTYPE svg PUBLIC "-//W3C//DTD SVG 1.0//EN" "http://www.w3.org/TR/2001/REC-SVG-20010904/DTD/svg10.dtd">
<svg version="1.0" xmlns="http://www.w3.org/2000/svg" width="1922px" height="291px" viewBox="0 0 1922 291" preserveAspectRatio="xMidYMid meet">
 <g fill="#ffffff">
  <path d="M267.5 287.5 c-12.1 -5 -26.8 -17.4 -35.5 -30 -7.2 -10.4 -12.5 -25.5 -15.1 -42.5 -0.6 -4.1 -1.2 -20.1 -1.4 -35.5 -0.3 -29.8 -1.2 -38.2 -5.4 -46.4 -2 -3.9 -2.4 -4.1 -6.7 -4.1 l-4.5 0 0.3 69.3 c0.3 64.1 0.4 69.5 2.1 73.2 1 2.2 2.8 5 3.9 6.2 l2.1 2.3 -28.8 0 -28.9 0 2.3 -2.2 c1.3 -1.1 3.3 -4.2 4.5 -6.7 l2.1 -4.6 0 -116 c0 -124.9 0.2 -120.1 -5.2 -126.5 l-2.5 -3 39.9 0 c44.5 0 47.5 0.4 59.5 6.7 16 8.4 24 23.8 24.1 46.3 0 12 -2.1 19.7 -7.7 28.4 -8.7 13.4 -25.8 23.1 -44.4 25.2 -3.4 0.3 -6.2 1 -6.2 1.3 0 1.1 10.2 6.6 17.5 9.5 8.2 3.4 19.5 6.3 27.4 7.2 3.4 0.3 6.1 0.8 6.1 0.9 0 0.1 -1.4 3.3 -3.1 7.1 -10.3 22.6 -14.3 45.7 -12.1 69.9 0.7 6.9 1.9 16.1 2.8 20.3 2 10 8.1 25.4 14.4 36.6 2.7 4.9 4.9 9.1 4.7 9.2 -0.1 0.2 -2.9 -0.8 -6.2 -2.1z m-54.4 -163.6 c8.5 -2.9 13.5 -10 16.4 -23.2 1.4 -6.5 1.6 -11.5 1.2 -30.5 -0.4 -24 -1.2 -29 -6 -37.5 -4.4 -7.9 -16.1 -11.4 -21.1 -6.4 -4.1 4.1 -4.6 10 -4.6 55.7 l0 43 5.4 0 c2.9 0 6.8 -0.5 8.7 -1.1z"/>
  <path d="M144.5 287.1 c-26.2 -9.4 -42.1 -24.2 -55.9 -52.4 -8.9 -18.2 -15.6 -44.3 -15.6 -60.7 0 -14.6 -4.5 -34.6 -9.2 -40.5 -2.5 -3.2 -2.2 -3.5 -7.3 9 l-3.6 8.9 0.3 59.1 c0.3 55.4 0.4 59.2 2.2 62.5 1 1.9 2.8 4.5 3.9 5.8 l2 2.2 -28.7 0 -28.7 0 2.9 -3.7 c6 -7.6 5.7 -1.8 5.7 -126.3 0 -90 -0.3 -115.4 -1.3 -118.7 -0.7 -2.3 -2.8 -5.8 -4.6 -7.8 l-3.3 -3.5 29.6 0 c27.1 0 29.4 0.1 27.3 1.6 -1.2 0.8 -3.2 3.4 -4.5 5.7 -2.2 4.2 -2.2 4.7 -2.5 50.7 -0.1 25.5 0 46.2 0.2 45.9 0.3 -0.3 2.8 -6.1 5.6 -12.9 10.6 -25.7 28.5 -63.2 39.2 -82.2 l4.9 -8.8 21.7 0 21.7 0.1 -3 2.2 c-22.3 16.4 -53.3 54.7 -74 91.4 -3 5.4 -5.5 10.2 -5.5 10.8 0.1 1.7 10 8.4 18.5 12.5 10 4.8 20.7 7.9 30.7 8.7 l7.7 0.6 -1.9 3.8 c-3.3 6.5 -6.9 16.7 -8.5 24.4 -6.7 32.6 8.6 79.7 34.9 107.3 3.2 3.4 5.5 6.2 5 6.1 -0.5 0 -3.2 -0.8 -5.9 -1.8z"/>
  <path d="M1042.2 274 c-4.8 -19.5 -13.9 -46.2 -21.6 -63.5 -12.3 -27.8 -31.6 -61.5 -69.4 -121.3 l-18.7 -29.7 -0.3 94 c-0.2 66.8 0 95.7 0.8 100 2 10.4 9 20.9 17.6 26.2 1.5 0.9 -3.3 1.2 -23 1.2 l-24.9 0.1 3.9 -2.9 c7.9 -5.8 13.1 -13.7 15.3 -23.1 0.7 -2.9 1.1 -40.5 1.1 -107.1 l0 -102.6 -3.9 -5.9 c-3.8 -5.8 -11.2 -13.5 -16.1 -16.8 -2.3 -1.5 -0.3 -1.6 32.7 -1.6 l35.2 0 -2.4 2.5 c-1.8 1.7 -2.5 3.5 -2.5 6.2 0 3.2 3.2 8.5 22.8 37.7 21 31.3 37.5 57.7 44.8 71.6 l2.9 5.5 0.3 -11 c0.1 -6 0.1 -28.1 0 -49 l-0.3 -38 -2.7 -5.8 c-3.4 -7.2 -6.5 -11.1 -13 -15.9 l-5 -3.8 25.8 0 25.9 0 -3.2 2 c-5.4 3.3 -11.1 9.9 -14.5 16.8 l-3.3 6.7 -0.5 120.5 -0.5 120.5 -3.3 -13.5z"/>
  <path d="M355.5 281.7 c0.5 -2.1 16.4 -112.7 16.6 -115.1 0 -0.6 3.1 11.1 6.9 25.9 13.1 52.2 24.9 80.2 36 86 4.4 2.3 11.1 1.9 15.1 -0.8 6.8 -4.6 10.5 -14.9 11.5 -31.7 0.8 -12.5 -0.5 -21.2 -4.6 -31.9 -5.4 -13.9 -12.8 -24.9 -39 -58.1 -12.7 -16 -18.1 -24.5 -25.5 -39.5 -7.6 -15.3 -11.3 -27.6 -12.1 -39.4 -1.8 -26.7 14.5 -51.7 37.6 -57.7 5.8 -1.5 8.3 -1.6 22.5 -0.5 18.4 1.3 32.1 1.4 38.4 0.2 l4.3 -0.9 -0.5 3.7 c-0.3 2 -2 19.9 -3.8 39.9 -1.8 19.9 -3.6 35.9 -4 35.5 -0.4 -0.5 -2.8 -6.6 -5.2 -13.8 -15.6 -45.3 -26.1 -61.5 -39.5 -61.5 -8.9 0 -13.2 6.4 -13.2 19.6 0 20.2 5.8 32.2 33.6 69.9 21.2 28.9 29.8 43.4 36.2 61.7 12.2 34.4 5.7 73 -16 96.3 -13.4 14.4 -21 16.2 -55.5 13 -18.2 -1.7 -30.3 -1.5 -37.3 0.5 -2.8 0.8 -3 0.7 -2.5 -1.3z"/>
  <path d="M288.8 277.5 c1.7 -1.9 3.6 -5.1 4.1 -7.2 1.5 -5.4 1.5 -233.3 0 -238.8 -0.6 -2.1 -2.6 -5.4 -4.4 -7.2 l-3.3 -3.3 29.5 0 29.5 0 -3.5 3.9 c-2 2.2 -3.9 5.7 -4.4 7.8 -0.4 2.1 -0.8 55.8 -0.8 119.3 0 125.1 -0.2 119.9 5.5 126 l2.8 3 -29 0 -29 0 3 -3.5z"/>
  <path d="M539.8 279.4 c1.2 -0.8 3.2 -3.4 4.5 -5.7 l2.2 -4.2 0.3 -115.5 c0.2 -63.5 0 -117.4 -0.3 -119.7 -1.3 -9.2 -9.7 -13.6 -14.4 -7.7 -3.4 4.4 -4.1 8.9 -5.1 33.4 -1.2 30.5 -3.3 42.9 -10.3 60.5 -5.8 14.8 -18.8 31.3 -30.4 38.6 l-3.1 2 3.8 -7.5 c7.5 -15.1 10.4 -32.4 10.4 -62.6 0 -21.3 -0.1 -23 -2.7 -32.4 -3.3 -12.3 -10.1 -26.5 -15.7 -32.8 l-4.2 -4.8 92.2 0 92.2 0 -4.2 4.8 c-5.6 6.3 -12.4 20.5 -15.7 32.8 -2.6 9.4 -2.7 11.1 -2.7 32.4 0 30.2 2.9 47.5 10.4 62.6 l3.8 7.5 -3 -1.9 c-10.6 -6.7 -22.2 -20.5 -28.3 -33.7 -8.2 -17.6 -11.3 -33.8 -12.5 -66 -1 -24 -1.7 -28.5 -5.1 -32.9 -4.7 -5.9 -13.1 -1.5 -14.4 7.7 -0.3 2.3 -0.5 56.2 -0.3 119.7 l0.3 115.5 2.2 4.2 c1.3 2.3 3.3 4.9 4.5 5.7 2.1 1.5 -0.2 1.6 -27.2 1.6 -27 0 -29.3 -0.1 -27.2 -1.6z"/>
  <path d="M666.8 277.5 c1.7 -1.9 3.6 -5.1 4.1 -7.2 1.5 -5.4 1.5 -233.3 0 -238.8 -0.6 -2.1 -2.6 -5.4 -4.4 -7.2 l-3.3 -3.3 29.5 0 29.5 0 -3.5 3.9 c-2 2.2 -3.9 5.7 -4.4 7.8 -0.4 2.1 -0.8 55.8 -0.8 119.3 0 125.1 -0.2 119.9 5.5 126 l2.8 3 -29 0 -29 0 3 -3.5z"/>
  <path d="M734.6 278.2 c10.6 -7.7 20.4 -22.8 24.3 -37.3 1.1 -4.1 13.8 -59.1 28.1 -122.4 14.4 -63.2 26.3 -115.1 26.4 -115.2 0.1 -0.1 15.4 58.6 34 130.5 18.7 71.9 34.9 132.8 36.2 135.3 1.2 2.5 4.1 6.2 6.3 8.2 l4.1 3.7 -35.2 0 -35.2 0 2.7 -2.7 c2.9 -3.2 5.7 -9.1 5.7 -12.5 0 -1.9 -18.1 -85.7 -19.6 -91.1 -0.5 -1.6 -1.9 -1.7 -14.7 -1.5 l-14.2 0.3 -7.7 33.5 c-7.3 31.4 -7.8 34.1 -7.5 43 0.3 8.2 0.8 10.4 3.5 16.1 1.9 3.9 5 8.3 7.7 10.8 l4.5 4.1 -26.7 0 -26.6 0 3.9 -2.8z m70 -138.7 c-3.3 -15.1 -6.3 -27.5 -6.6 -27.5 -0.3 0 -3.2 11.8 -6.4 26.3 -3.3 14.4 -6.1 26.8 -6.4 27.5 -0.3 0.9 2.6 1.2 12.5 1.2 l12.9 0 -6 -27.5z"/>
  <path d="M1159.6 278.2 c10.6 -7.7 20.4 -22.8 24.3 -37.3 1.1 -4.1 13.8 -59.1 28.1 -122.4 14.4 -63.2 26.3 -115.1 26.4 -115.2 0.1 -0.1 15.4 58.6 34 130.5 18.7 71.9 34.9 132.8 36.2 135.3 1.2 2.5 4.1 6.2 6.3 8.2 l4.1 3.7 -35.2 0 -35.2 0 2.7 -2.7 c2.9 -3.2 5.7 -9.1 5.7 -12.5 0 -1.9 -18.1 -85.7 -19.6 -91.1 -0.5 -1.6 -1.9 -1.7 -14.7 -1.5 l-14.2 0.3 -7.7 33.5 c-7.3 31.4 -7.8 34.1 -7.5 43 0.3 8.2 0.8 10.4 3.5 16.1 1.9 3.9 5 8.3 7.7 10.8 l4.5 4.1 -26.7 0 -26.6 0 3.9 -2.8z m70 -138.7 c-3.3 -15.1 -6.3 -27.5 -6.6 -27.5 -0.3 0 -3.2 11.8 -6.4 26.3 -3.3 14.4 -6.1 26.8 -6.4 27.5 -0.3 0.9 2.6 1.2 12.5 1.2 l12.9 0 -6 -27.5z"/>
  <path d="M1325.3 270.7 c2.8 -45.6 25.9 -112.7 71.7 -208.6 15.8 -33.1 15.2 -37.1 -5.7 -37.1 -10.5 0 -13.3 1 -19.7 6.9 -8.9 8.2 -19.5 29.6 -29.6 59.6 l-4.7 14 -0.7 -4.5 c-0.3 -2.5 -1.5 -18.2 -2.6 -35 -1.1 -16.8 -2.3 -33.8 -2.6 -37.7 l-0.6 -7.3 66.8 0 66.9 0 -3.7 3 c-7.8 6.4 -9.3 9.1 -34.8 62 -42.5 88 -59 136.3 -59 172.5 0 10.7 1.7 15.1 7 17.8 5 2.6 19.9 1.9 26.4 -1.2 12 -5.9 20.5 -22.7 34.2 -67.4 1.5 -4.8 2.8 -8.6 3 -8.4 0.2 0.2 2.9 17.2 5.9 37.8 3 20.6 5.7 38.9 6 40.7 l0.6 3.2 -62.7 0 -62.7 0 0.6 -10.3z"/>
  <path d="M1466.3 270.7 c2.8 -45.6 25.9 -112.7 71.7 -208.6 15.8 -33.1 15.2 -37.1 -5.7 -37.1 -10.5 0 -13.3 1 -19.7 6.9 -8.9 8.2 -19.5 29.6 -29.6 59.6 l-4.7 14 -0.7 -4.5 c-0.3 -2.5 -1.5 -18.2 -2.6 -35 -1.1 -16.8 -2.3 -33.8 -2.6 -37.7 l-0.6 -7.3 66.8 0 66.9 0 -3.7 3 c-7.8 6.4 -9.3 9.1 -34.8 62 -42.5 88 -59 136.3 -59 172.5 0 10.7 1.7 15.1 7 17.8 5 2.6 19.9 1.9 26.4 -1.2 12 -5.9 20.5 -22.7 34.2 -67.4 1.5 -4.8 2.8 -8.6 3 -8.4 0.2 0.2 2.9 17.2 5.9 37.8 3 20.6 5.7 38.9 6 40.7 l0.6 3.2 -62.7 0 -62.7 0 0.6 -10.3z"/>
  <path d="M1612.3 278.3 c6 -6.4 5.7 0.7 5.7 -126.5 0 -81.3 -0.3 -117.5 -1.1 -120.3 -0.6 -2.1 -2.6 -5.4 -4.4 -7.2 l-3.3 -3.3 55.4 0 55.4 0 0 3.3 c0 4.6 -4.9 55.9 -5.3 56.3 -0.2 0.3 -2 -2.2 -4 -5.4 -5.4 -8.7 -22.8 -32.9 -28.4 -39.3 -9.4 -11 -14.7 -13.5 -19.3 -9.4 -3.4 3.1 -4 10.4 -4 52.1 l0 40.5 4.8 -0.7 c6.3 -0.9 12.8 -3.1 17.1 -5.9 3.6 -2.3 11.8 -10.6 17.8 -18 l3.2 -4 0 32.5 c0.1 17.9 -0.3 32 -0.8 31.5 -0.4 -0.6 -3.3 -4.4 -6.3 -8.5 -6.4 -8.7 -13.9 -16 -19.4 -18.8 -3.4 -1.7 -12.6 -4.2 -15.4 -4.2 -1.4 0 -1.3 137.4 0.1 143.8 2.5 12.1 14 12.9 19.4 1.5 1.1 -2.3 2.2 -9.2 3.1 -20.3 1.6 -20 4.1 -33.2 9.5 -49.4 8.3 -24.9 21.8 -48.5 35.7 -62.8 4.2 -4.3 7.9 -7.8 8.4 -7.8 0.5 0 -0.6 2.8 -2.3 6.2 -6.7 13.3 -13.5 38 -16 58.2 -1.5 12.3 -0.6 42.3 1.6 55.5 1.9 11.3 5.7 23.2 9.1 28.3 1.3 2.1 2.4 4 2.4 4.3 0 0.3 -27.3 0.5 -60.7 0.5 l-60.7 0 2.7 -2.7z"/>
  <path d="M1800.8 279.4 c1.2 -0.8 3.2 -3.4 4.5 -5.7 l2.2 -4.2 0.3 -115.5 c0.2 -63.5 0 -117.4 -0.3 -119.7 -1.3 -9.2 -9.7 -13.6 -14.4 -7.7 -3.4 4.4 -4.1 8.9 -5.1 33.4 -1.2 30.5 -3.3 42.9 -10.3 60.5 -5.8 14.8 -18.8 31.3 -30.4 38.6 l-3.1 2 3.8 -7.5 c7.5 -15.1 10.4 -32.4 10.4 -62.6 0 -21.3 -0.1 -23 -2.7 -32.4 -3.3 -12.3 -10.1 -26.5 -15.7 -32.8 l-4.2 -4.8 92.2 0 92.2 0 -4.2 4.8 c-5.6 6.3 -12.4 20.5 -15.7 32.8 -2.6 9.4 -2.7 11.1 -2.7 32.4 0 30.2 2.9 47.5 10.4 62.6 l3.8 7.5 -3 -1.9 c-10.6 -6.7 -22.2 -20.5 -28.3 -33.7 -8.2 -17.6 -11.3 -33.8 -12.5 -66 -1 -24 -1.7 -28.5 -5.1 -32.9 -4.7 -5.9 -13.1 -1.5 -14.4 7.7 -0.3 2.3 -0.5 56.2 -0.3 119.7 l0.3 115.5 2.2 4.2 c1.3 2.3 3.3 4.9 4.5 5.7 2.1 1.5 -0.2 1.6 -27.2 1.6 -27 0 -29.3 -0.1 -27.2 -1.6z"/>
 </g>
</svg>